<svg width="200" height="200" viewBox="0 0 200 200" fill="none" xmlns="http://www.w3.org/2000/svg">
<path fill-rule="evenodd" clip-rule="evenodd" d="M105.944 0.0855727C105.374 0.0523428 104.893 0.507714 104.893 1.07877V81.2236C104.893 84.6983 106.978 93.5937 115.319 101.377C120.379 106.1 133.373 118.822 146.069 131.253L146.098 131.281C152.879 137.921 159.574 144.476 164.929 149.684C166.747 151.452 166.908 154.313 165.301 156.277C163.474 158.51 160.117 158.677 158.076 156.637L112.539 111.106C109.99 109.022 104.893 106.798 104.893 114.581V135.964C104.893 136.511 105.116 137.033 105.511 137.41L132.28 162.985C134.414 165.024 134.453 168.42 132.365 170.507C130.265 172.607 126.842 172.552 124.81 170.385L107.673 152.108C106.978 151.414 104.893 151.136 104.893 155.583V198.894C104.893 199.465 105.374 199.92 105.944 199.887C156.51 196.94 196.996 156.46 199.944 105.903C199.977 105.333 199.522 104.852 198.951 104.852H148.681C144.986 104.852 141.692 101.645 136.667 96.7532C135.076 95.2042 133.311 93.4859 131.305 91.6475C130.923 91.2976 130.527 90.9444 130.124 90.5858C127.067 87.8629 123.659 84.8268 123.659 80.5283V41.6118C123.659 38.9247 125.838 36.7464 128.525 36.7464C131.212 36.7464 133.39 38.9225 133.39 41.6096V59.6798C133.39 64.6834 135.475 63.1545 136.865 61.7646L160.522 38.112C162.428 36.2063 165.518 36.2063 167.424 38.112C169.349 40.0366 169.33 43.164 167.403 45.087C164.203 48.2816 160.411 52.1367 156.604 56.007C149.546 63.1827 142.435 70.4113 138.951 73.5788C132.834 79.1384 134.78 81.9182 136.865 84.003C140.688 87.4778 141.209 87.999 141.557 88.3465C141.905 88.6939 142.078 88.8677 145.206 91.6475C147.557 93.7369 150.303 94.4273 151.462 94.4273L198.935 95.0687C199.511 95.0765 199.975 94.5923 199.941 94.0168C196.968 43.4844 156.492 3.03196 105.944 0.0855727ZM94.7679 0.0494031C95.3427 0.0196493 95.8217 0.480881 95.8113 1.05636C95.5695 14.5158 95.162 38.3944 95.162 43.3435C95.162 47.866 92.3818 45.7811 90.9916 44.3912L82.6509 36.0518C76.3954 29.7973 72.225 25.6276 68.0546 29.7973C65.2744 32.5771 67.3596 36.3208 70.1398 38.8316C77.3221 45.3178 90.9916 58.2902 94.4669 62.4599C98.5816 66.6667 96.065 77.9163 90.9916 84.0034C87.5163 88.1731 81.5603 86.5248 76.3954 81.2236C74.0509 78.9885 71.3471 76.3428 68.5014 73.5584C59.2551 64.5108 48.5109 53.9978 43.7275 51.3407C39.9693 49.2532 32.9253 49.2547 28.0658 49.2558L15.4843 49.2559C14.7105 49.2559 14.2318 48.4151 14.6362 47.7555C31.3735 20.4592 60.8358 1.80584 94.7679 0.0494031ZM0.202106 92.6715C0.160561 93.2465 0.618119 93.7328 1.19461 93.7328H49.9799C60.2076 93.7328 61.1452 94.6616 65.7035 99.1769C66.7212 100.185 67.9193 101.372 69.4416 102.767C69.8861 103.174 70.3505 103.574 70.8212 103.978C73.825 106.559 77.0873 109.362 77.0873 115.971V156.972C77.0873 159.66 74.9089 161.838 72.2218 161.838C69.5347 161.838 67.3564 159.662 67.3564 156.975V138.905C67.3564 127.882 64.9345 130.904 62.9212 133.416C62.5228 133.913 62.1404 134.39 61.7959 134.735L38.1395 158.387C36.2335 160.293 33.1436 160.293 31.2376 158.387C29.3127 156.463 29.3316 153.335 31.2581 151.412C34.4582 148.218 38.2501 144.363 42.057 140.493C49.1156 133.317 56.2258 126.088 59.7107 122.921C65.8273 117.361 67.3564 115.276 65.2712 113.191C61.236 109.524 61.073 109.34 60.8992 109.168C60.7437 109.013 60.5796 108.867 57.6256 106.242C55.1886 104.076 49.2238 104.137 47.5001 104.155C47.3776 104.156 47.2765 104.157 47.1996 104.157L1.0493 103.533C0.478152 103.526 0.0162705 104.001 0.0420107 104.572C2.37164 156.217 43.8517 197.667 95.514 199.959C96.0791 199.984 96.5521 199.531 96.5521 198.965V120.141C96.5521 115.164 91.8607 110.508 83.6087 102.32C82.6426 101.361 81.6277 100.354 80.5657 99.2923C66.6645 85.3933 52.0682 71.4943 43.0325 63.8498C37.2824 58.9852 36.7769 58.9852 29.8263 58.9852H9.34477C8.95119 58.9852 8.59384 59.2157 8.43473 59.5757C3.90687 69.8201 1.0478 80.9668 0.202106 92.6715Z" fill="#C4D8F4"/>
</svg>
